<svg width="870" height="1118" viewBox="0 0 870 1118" fill="none" xmlns="http://www.w3.org/2000/svg">
<path d="M812.188 492.313C773.647 430.063 721.687 380.423 656.41 343.396C591.132 306.368 517.278 287.904 435.05 287.904C352.823 287.904 280.281 306.469 214.397 343.396C148.615 380.423 96.3528 430.063 57.8117 492.313C19.2706 554.564 0 624.786 0 702.877C0 780.968 19.2706 849.979 57.8117 912.734C96.3528 975.49 148.615 1025.33 214.397 1062.36C280.18 1099.39 353.731 1117.85 435.05 1117.85C516.37 1117.85 591.132 1099.39 656.41 1062.36C721.687 1025.33 773.647 975.49 812.188 912.734C850.729 849.979 870 780.06 870 702.877C870 625.694 850.729 554.564 812.188 492.313ZM564.496 840.999C530.596 877.523 487.313 895.784 434.949 895.784C382.586 895.784 339.303 877.523 305.403 840.999C271.503 804.476 254.452 758.469 254.452 702.877C254.452 647.285 271.402 601.278 305.403 564.755C339.303 528.231 382.586 509.97 434.949 509.97C487.313 509.97 530.596 528.231 564.496 564.755C598.396 601.278 615.447 647.285 615.447 702.877C615.447 758.469 598.497 804.476 564.496 840.999Z" fill="#3363FF"/>
<path d="M192.002 187.617C168.897 165.017 157.295 139.289 157.295 110.434C157.295 81.5783 168.897 57.465 192.002 34.865C215.106 12.265 242.146 0.964966 273.019 0.964966C303.892 0.964966 330.326 12.265 352.422 34.865C374.517 57.465 385.616 82.6882 385.616 110.434C385.616 138.179 374.517 164.916 352.422 187.617C330.326 210.217 303.791 221.517 273.019 221.517C242.247 221.517 215.207 210.217 192.002 187.617Z" fill="#FF9500"/>
<path d="M518.996 187.617C496.9 165.017 485.802 139.289 485.802 110.434C485.802 81.5783 496.8 57.465 518.996 34.865C541.092 12.265 568.131 0.964966 600.013 0.964966C631.895 0.964966 658.632 12.265 680.223 34.865C701.814 57.465 712.61 82.6882 712.61 110.434C712.61 138.179 701.814 164.916 680.223 187.617C658.632 210.217 631.895 221.517 600.013 221.517C568.131 221.517 541.092 210.217 518.996 187.617Z" fill="#FF9500"/>
</svg>
