<svg
      width="150"
      height="40"
      viewBox="0 0 1024 170"
      fill="none"
      xmlns="http://www.w3.org/2000/svg"
    >
      <path
        d="M117.762 77.9415C112.173 68.9156 104.64 61.7182 95.1748 56.3495C85.71 50.9807 75.0017 48.3036 63.0793 48.3036C51.1568 48.3036 40.6387 50.9953 31.0861 56.3495C21.5482 61.7182 13.9705 68.9156 8.38229 77.9415C2.7941 86.9675 0 97.1491 0 108.472C0 119.794 2.7941 129.801 8.38229 138.9C13.9705 147.999 21.5482 155.225 31.0861 160.594C40.6241 165.963 51.2885 168.64 63.0793 168.64C74.8701 168.64 85.71 165.963 95.1748 160.594C104.64 155.225 112.173 147.999 117.762 138.9C123.35 129.801 126.144 119.663 126.144 108.472C126.144 97.2808 123.35 86.9675 117.762 77.9415ZM81.848 128.499C76.9327 133.794 70.657 136.442 63.0646 136.442C55.4723 136.442 49.1966 133.794 44.2813 128.499C39.366 123.203 36.8938 116.532 36.8938 108.472C36.8938 100.411 39.3514 93.7406 44.2813 88.445C49.1966 83.1494 55.4723 80.5016 63.0646 80.5016C70.657 80.5016 76.9327 83.1494 81.848 88.445C86.7633 93.7406 89.2355 100.411 89.2355 108.472C89.2355 116.532 86.7779 123.203 81.848 128.499Z"
        fill="#3363FF"
      />
      <path
        d="M146.273 93.9454C146.273 79.4775 150.632 68.2573 159.366 60.2846C168.085 52.3119 180.285 48.3182 195.938 48.3182C206.968 48.3182 215.731 50.1468 222.226 53.804C228.706 57.4612 231.954 62.1863 231.954 68.0086C231.954 70.9929 231.135 74.1234 229.496 77.4003C227.858 80.6771 225.912 83.3688 223.674 85.4461C220.836 83.954 217.486 82.7544 213.609 81.862C209.733 80.9697 206.076 80.5162 202.652 80.5162C189.077 80.5162 182.304 87.5965 182.304 101.772V165.524H146.288V93.9454H146.273Z"
        fill="#3363FF"
      />
      <path
        d="M244.242 16.5445C244.242 11.3221 245.88 7.37231 249.157 4.69524C252.434 2.00355 257.057 0.67233 263.025 0.67233C266.01 0.67233 268.994 0.979535 271.978 1.56469C274.962 2.16447 277.713 2.98368 280.258 4.02232V89.469L312.471 62.6252C317.386 58.456 321.716 55.5449 325.446 53.9064C329.177 52.268 333.126 51.4488 337.296 51.4488C347.726 51.4488 355.333 55.5449 360.117 63.7516C356.094 67.9354 349.789 73.626 341.216 80.8673C332.644 88.1085 323.135 95.7447 312.69 103.791C321.935 112.144 331.327 121.769 340.88 132.653C350.418 143.537 358.917 154.494 366.378 165.539H321.862C313.363 153.909 299.495 138.841 280.258 120.35V165.539H244.242V16.5445Z"
        fill="#3363FF"
      />
      <path
        d="M431.476 168.655C419.539 168.655 409.064 166.124 400.053 161.048C391.027 155.986 383.976 148.935 378.915 139.909C373.838 130.883 371.308 120.409 371.308 108.486C371.308 96.564 373.955 86.3092 379.251 77.2832C384.547 68.2573 391.817 61.1769 401.062 56.0276C410.308 50.8783 420.826 48.3036 432.602 48.3036C442.447 48.3036 451.239 50.0152 458.992 53.4529C466.746 56.8907 472.861 61.5865 477.337 67.5405C481.813 73.509 484.052 80.2968 484.052 87.8891C484.052 100.265 479.166 109.291 469.393 114.952C459.621 120.628 443.852 123.452 422.084 123.452C419.246 123.452 416.862 123.422 414.931 123.335C412.985 123.261 411.2 123.144 409.562 122.998C410.454 127.621 413.585 131.351 418.953 134.175C424.322 137.013 431.11 138.432 439.302 138.432C442.286 138.432 445.71 138.095 449.586 137.422C453.463 136.749 457.149 135.857 460.66 134.745C464.156 133.633 466.731 132.551 468.369 131.497L480.892 156.557C477.454 158.795 472.948 160.843 467.36 162.715C461.772 164.588 455.847 166.036 449.571 167.075C443.31 168.113 437.269 168.64 431.446 168.64L431.476 168.655ZM432.368 76.0398C425.507 76.0398 419.729 78.3219 415.033 82.8568C410.337 87.4063 407.982 93.1847 407.982 100.192C409.181 100.338 410.41 100.411 411.668 100.411H415.135C427.365 100.411 436.128 99.3288 441.423 97.1637C446.719 94.9987 449.367 91.8389 449.367 87.655C449.367 84.2319 447.801 81.4232 444.671 79.2727C441.54 77.1077 437.43 76.0252 432.368 76.0252V76.0398Z"
        fill="#3363FF"
      />
      <path
        d="M501.474 96.403C501.474 85.9727 504.049 77.1662 509.198 70.0127C514.348 62.8593 521.238 57.4466 529.883 53.7894C538.529 50.1322 548.067 48.3036 558.512 48.3036C568.957 48.3036 578.451 50.1322 587.038 53.7894C595.611 57.4466 602.471 62.8446 607.621 70.0127C612.77 77.1662 615.345 85.9727 615.345 96.403V165.524H579.329V104.683C579.329 89.1764 572.395 81.4232 558.527 81.4232C544.659 81.4232 537.505 89.1764 537.505 104.683V165.524H501.489V96.403H501.474Z"
        fill="#3363FF"
      />
      <path
        d="M705.473 34.9914C701.742 31.0417 699.884 26.3019 699.884 20.7869C699.884 15.2718 701.742 10.3566 705.473 6.46532C709.203 2.5887 713.899 0.643066 719.56 0.643066C725.222 0.643066 730.151 2.5887 733.882 6.46532C737.612 10.3419 739.47 15.1109 739.47 20.7869C739.47 26.4629 737.597 31.0417 733.882 34.9914C730.151 38.9412 725.382 40.9161 719.56 40.9161C713.738 40.9161 709.188 38.9412 705.473 34.9914Z"
        fill="#3363FF"
      />
      <path
        d="M27.839 33.7627C24.4891 30.4858 22.8068 26.7555 22.8068 22.5716C22.8068 18.3878 24.4891 14.8915 27.839 11.6147C31.189 8.33785 35.1096 6.69942 39.586 6.69942C44.0624 6.69942 47.8951 8.33785 51.0988 11.6147C54.3025 14.8915 55.9117 18.5487 55.9117 22.5716C55.9117 26.5945 54.3025 30.4712 51.0988 33.7627C47.8951 37.0395 44.0477 38.6779 39.586 38.6779C35.1242 38.6779 31.2037 37.0395 27.839 33.7627Z"
        fill="#FF9500"
      />
      <path
        d="M75.2509 33.7627C72.0472 30.4858 70.438 26.7555 70.438 22.5716C70.438 18.3878 72.0326 14.8915 75.2509 11.6147C78.4546 8.33785 82.3751 6.69942 86.9978 6.69942C91.6205 6.69942 95.4971 8.33785 98.6277 11.6147C101.758 14.8915 103.324 18.5487 103.324 22.5716C103.324 26.5945 101.758 30.4712 98.6277 33.7627C95.4971 37.0395 91.6205 38.6779 86.9978 38.6779C82.3751 38.6779 78.4546 37.0395 75.2509 33.7627Z"
        fill="#FF9500"
      />
      <path
        d="M675.952 165.524H639.936V16.5446C639.936 11.3221 641.575 7.37234 644.852 4.69528C648.128 2.00358 652.751 0.672363 658.72 0.672363C661.704 0.672363 664.688 0.979568 667.672 1.56472C670.657 2.1645 673.407 2.98371 675.952 4.02235V165.524Z"
        fill="#FF9500"
      />
      <path
        d="M737.686 165.524H701.67V67.3211C701.67 62.0986 703.308 58.1488 706.585 55.4717C709.862 52.7801 714.484 51.4488 720.453 51.4488C723.437 51.4488 726.422 51.756 729.406 52.3412C732.39 52.941 735.14 53.7602 737.686 54.7988V165.524Z"
        fill="#FF9500"
      />
      <path
        d="M763.403 96.4031C763.403 85.9727 765.978 77.1662 771.127 70.0128C776.276 62.8593 783.167 57.4466 791.812 53.7894C800.458 50.1323 809.996 48.3037 820.441 48.3037C830.885 48.3037 840.38 50.1323 848.967 53.7894C857.539 57.4466 864.4 62.8447 869.549 70.0128C874.699 77.1662 877.273 85.9727 877.273 96.4031V165.524H841.257V104.683C841.257 89.1764 834.323 81.4232 820.455 81.4232C806.587 81.4232 799.434 89.1764 799.434 104.683V165.524H763.418V96.4031H763.403Z"
        fill="#FF9500"
      />
      <path
        d="M901.864 16.5446C901.864 11.3221 903.503 7.37234 906.78 4.69528C910.056 2.00358 914.679 0.672363 920.648 0.672363C923.632 0.672363 926.616 0.979568 929.6 1.56472C932.585 2.1645 935.335 2.98371 937.88 4.02235V89.469L970.093 62.6252C975.008 58.456 979.338 55.5449 983.069 53.9065C986.799 52.268 990.749 51.4488 994.918 51.4488C1005.35 51.4488 1012.96 55.5449 1017.74 63.7516C1013.72 67.9355 1007.41 73.6261 998.839 80.8673C990.266 88.1085 980.757 95.7448 970.312 103.791C979.558 112.144 988.949 121.769 998.502 132.653C1008.04 143.537 1016.54 154.494 1024 165.539H979.485C970.985 153.909 957.117 138.841 937.88 120.35V165.539H901.864V16.5446Z"
        fill="#FF9500"
      />
    </svg>